<svg xmlns="http://www.w3.org/2000/svg" viewBox="0 0 1024 1024">
  <defs>
    <linearGradient id="bgGradient" x1="0%" y1="0%" x2="100%" y2="100%">
      <stop offset="0%" stop-color="#3b82f6"/>
      <stop offset="100%" stop-color="#1d4ed8"/>
    </linearGradient>
  </defs>
  <!-- Rounded square background with gradient -->
  <rect x="0" y="0" width="1024" height="1024" rx="180" ry="180" fill="url(#bgGradient)"/>

  <!-- Lucide house icon - 24x24 scaled to 560x560, centered -->
  <g transform="translate(232, 210) scale(23.33)" fill="none" stroke="white" stroke-width="2.2" stroke-linecap="round" stroke-linejoin="round">
    <path d="M15 21v-8a1 1 0 0 0-1-1h-4a1 1 0 0 0-1 1v8"/>
    <path d="M3 10a2 2 0 0 1 .709-1.528l7-5.999a2 2 0 0 1 2.582 0l7 5.999A2 2 0 0 1 21 10v9a2 2 0 0 1-2 2H5a2 2 0 0 1-2-2z"/>
  </g>
</svg>
